<svg width="572" height="120" viewBox="0 0 572 120" fill="none" xmlns="http://www.w3.org/2000/svg">
<path d="M126.186 45.8605H78.0001L63.1163 0L48.1861 45.8605L0 45.814L39.0233 74.1862L24.093 120L63.1163 91.6745L102.093 120L87.2094 74.1862L126.186 45.8605Z" fill="#00B67A"/>
<path d="M90.5584 84.5581L87.2095 74.186L63.1165 91.6744L90.5584 84.5581Z" fill="#005128"/>
<path d="M226.186 0H166.186V60H226.186V0Z" fill="#00B67A"/>
<path d="M196.186 40.4374L205.311 38.125L209.123 49.875L196.186 40.4374ZM217.186 25.25H201.123L196.186 10.125L191.248 25.25H175.186L188.186 34.625L183.248 49.75L196.248 40.3749L204.248 34.625L217.186 25.25Z" fill="white"/>
<path d="M296.186 0H236.186V60H296.186V0Z" fill="#00B67A"/>
<path d="M266.186 40.4374L275.311 38.125L279.123 49.875L266.186 40.4374ZM287.186 25.25H271.123L266.186 10.125L261.248 25.25H245.186L258.186 34.625L253.248 49.75L266.248 40.3749L274.248 34.625L287.186 25.25Z" fill="white"/>
<path d="M366.186 0H306.186V60H366.186V0Z" fill="#00B67A"/>
<path d="M336.186 40.4374L345.311 38.125L349.123 49.875L336.186 40.4374ZM357.186 25.25H341.123L336.186 10.125L331.248 25.25H315.186L328.186 34.625L323.248 49.75L336.248 40.3749L344.248 34.625L357.186 25.25Z" fill="white"/>
<path d="M436.186 0H376.186V60H436.186V0Z" fill="#00B67A"/>
<path d="M406.186 40.4374L415.311 38.125L419.123 49.875L406.186 40.4374ZM427.186 25.25H411.123L406.186 10.125L401.248 25.25H385.186L398.186 34.625L393.248 49.75L406.248 40.3749L414.248 34.625L427.186 25.25Z" fill="white"/>
<path d="M506.186 0H446.186V60H506.186V0Z" fill="#00B67A"/>
<path d="M476.186 40.4374L485.311 38.125L489.123 49.875L476.186 40.4374ZM497.186 25.25H481.123L476.186 10.125L471.248 25.25H455.186L468.186 34.625L463.248 49.75L476.248 40.3749L484.248 34.625L497.186 25.25Z" fill="white"/>
<path d="M172.367 90.3193H176.132C178.329 90.3193 179.706 91.6377 179.706 93.6885C179.706 95.7832 178.403 97.0576 176.176 97.0576H172.367V90.3193ZM172.367 100.266H175.912L179.853 108H184.862L180.409 99.6064C182.841 98.6543 184.247 96.3105 184.247 93.6006C184.247 89.4258 181.464 86.8623 176.601 86.8623H167.944V108H172.367V100.266ZM192.773 105.158C191.322 105.158 190.356 104.426 190.356 103.254C190.356 102.141 191.264 101.423 192.861 101.306L196.171 101.101V102.243C196.171 103.942 194.633 105.158 192.773 105.158ZM191.366 108.249C193.329 108.249 195.278 107.268 196.156 105.598H196.244V108H200.375V97.2041C200.375 94.04 197.753 91.96 193.725 91.96C189.565 91.96 186.972 94.0547 186.811 97.1016H190.722C190.927 95.9443 191.938 95.1533 193.534 95.1533C195.146 95.1533 196.171 96.0029 196.171 97.4678V98.5078L192.216 98.7422C188.305 98.9766 186.108 100.632 186.108 103.488C186.108 106.315 188.378 108.249 191.366 108.249ZM204.286 88.6787V92.2969H202.074V95.5195H204.286V103.767C204.286 106.828 205.722 108.059 209.413 108.059C210.278 108.059 211.01 107.985 211.449 107.883V104.733C211.186 104.777 210.79 104.807 210.409 104.807C209.15 104.807 208.564 104.235 208.564 103.034V95.5195H211.464V92.2969H208.564V88.6787H204.286ZM220.619 95.124C222.524 95.124 223.827 96.501 223.915 98.5078H217.25C217.397 96.5449 218.744 95.124 220.619 95.124ZM223.974 103.195C223.578 104.396 222.377 105.173 220.81 105.173C218.627 105.173 217.206 103.635 217.206 101.394V101.13H228.031V99.8262C228.031 95.0508 225.146 91.96 220.575 91.96C215.932 91.96 213.002 95.2119 213.002 100.222C213.002 105.246 215.903 108.337 220.737 108.337C224.618 108.337 227.431 106.271 227.9 103.195H223.974ZM236.073 108.249C238.388 108.249 240.204 107.033 240.966 105.305H241.039V108H245.258V86.8623H240.981V94.9922H240.893C240.131 93.249 238.373 92.0479 236.103 92.0479C232.162 92.0479 229.672 95.1387 229.672 100.119C229.672 105.144 232.148 108.249 236.073 108.249ZM237.524 95.4756C239.648 95.4756 241.01 97.292 241.01 100.148C241.01 103.02 239.648 104.807 237.524 104.807C235.37 104.807 234.052 103.034 234.052 100.148C234.052 97.2773 235.37 95.4756 237.524 95.4756ZM264.242 108H268.446V104.118H271.23V100.588H268.446V86.8623H262.206C257.87 93.2344 255.57 96.9258 253.725 100.427V104.118H264.242V108ZM257.577 100.588C259.262 97.4385 261.181 94.4355 264.242 90.0264H264.33V100.705H257.577V100.588ZM276.269 108.176C277.572 108.176 278.627 107.121 278.627 105.817C278.627 104.499 277.572 103.459 276.269 103.459C274.95 103.459 273.91 104.499 273.91 105.817C273.91 107.121 274.95 108.176 276.269 108.176ZM290.229 108.469C295.268 108.469 298.798 105.949 298.798 102.287C298.798 99.5039 296.762 97.4531 293.876 96.8818V96.7939C296.352 96.1787 298.022 94.3623 298.022 92.0918C298.022 88.7812 294.814 86.3936 290.229 86.3936C285.644 86.3936 282.421 88.7959 282.421 92.0771C282.421 94.377 284.106 96.1934 286.596 96.7939V96.8818C283.71 97.4385 281.659 99.4893 281.659 102.272C281.659 105.935 285.175 108.469 290.229 108.469ZM290.229 105.246C287.9 105.246 286.274 103.869 286.274 101.95C286.274 100.061 287.9 98.6836 290.229 98.6836C292.558 98.6836 294.169 100.046 294.169 101.95C294.169 103.869 292.558 105.246 290.229 105.246ZM290.229 95.4609C288.222 95.4609 286.801 94.2598 286.801 92.5312C286.801 90.7881 288.222 89.5869 290.229 89.5869C292.221 89.5869 293.656 90.7881 293.656 92.5312C293.656 94.2598 292.221 95.4609 290.229 95.4609ZM312.699 104.426C315.556 104.426 317.929 102.067 317.929 99.2109C317.929 96.3545 315.556 93.9814 312.699 93.9814C309.843 93.9814 307.485 96.3545 307.485 99.2109C307.485 102.067 309.843 104.426 312.699 104.426ZM332.167 108H336.547V86.8623H332.153L326.689 90.6562V94.582L332.079 90.9199H332.167V108ZM343.959 112.629L345.922 104.367H341.85L340.751 112.629H343.959ZM357.172 108.469C362.533 108.469 365.785 104.206 365.785 97.3799C365.785 90.5537 362.504 86.3789 357.172 86.3789C351.84 86.3789 348.544 90.5684 348.544 97.3945C348.544 104.235 351.811 108.469 357.172 108.469ZM357.172 104.924C354.565 104.924 353.041 102.243 353.041 97.3945C353.041 92.5898 354.594 89.9238 357.172 89.9238C359.765 89.9238 361.288 92.5752 361.288 97.3945C361.288 102.243 359.779 104.924 357.172 104.924ZM376.86 108.469C382.221 108.469 385.473 104.206 385.473 97.3799C385.473 90.5537 382.192 86.3789 376.86 86.3789C371.528 86.3789 368.232 90.5684 368.232 97.3945C368.232 104.235 371.498 108.469 376.86 108.469ZM376.86 104.924C374.252 104.924 372.729 102.243 372.729 97.3945C372.729 92.5898 374.281 89.9238 376.86 89.9238C379.452 89.9238 380.976 92.5752 380.976 97.3945C380.976 102.243 379.467 104.924 376.86 104.924ZM396.547 108.469C401.908 108.469 405.16 104.206 405.16 97.3799C405.16 90.5537 401.879 86.3789 396.547 86.3789C391.215 86.3789 387.919 90.5684 387.919 97.3945C387.919 104.235 391.186 108.469 396.547 108.469ZM396.547 104.924C393.94 104.924 392.416 102.243 392.416 97.3945C392.416 92.5898 393.969 89.9238 396.547 89.9238C399.14 89.9238 400.663 92.5752 400.663 97.3945C400.663 102.243 399.154 104.924 396.547 104.924ZM418.007 101.394H423.705V97.6582H418.007V91.667H414.184V97.6582H408.5V101.394H414.184V107.37H418.007V101.394ZM437.944 90.3193H441.708C443.905 90.3193 445.282 91.6377 445.282 93.6885C445.282 95.7832 443.979 97.0576 441.752 97.0576H437.944V90.3193ZM437.944 100.266H441.488L445.429 108H450.439L445.986 99.6064C448.417 98.6543 449.823 96.3105 449.823 93.6006C449.823 89.4258 447.04 86.8623 442.177 86.8623H433.52V108H437.944V100.266ZM459.272 95.124C461.176 95.124 462.48 96.501 462.568 98.5078H455.903C456.049 96.5449 457.397 95.124 459.272 95.124ZM462.626 103.195C462.231 104.396 461.029 105.173 459.462 105.173C457.279 105.173 455.859 103.635 455.859 101.394V101.13H466.684V99.8262C466.684 95.0508 463.798 91.96 459.228 91.96C454.584 91.96 451.654 95.2119 451.654 100.222C451.654 105.246 454.555 108.337 459.389 108.337C463.271 108.337 466.083 106.271 466.552 103.195H462.626ZM483.017 92.2969H478.549L475.297 104.221H475.209L471.943 92.2969H467.358L472.792 108H477.626L483.017 92.2969ZM484.584 108H488.862V92.2969H484.584V108ZM486.708 90.1729C487.953 90.1729 488.935 89.1768 488.935 87.9756C488.935 86.7598 487.953 85.7783 486.708 85.7783C485.463 85.7783 484.482 86.7598 484.482 87.9756C484.482 89.1768 485.463 90.1729 486.708 90.1729ZM498.764 95.124C500.668 95.124 501.972 96.501 502.06 98.5078H495.395C495.541 96.5449 496.889 95.124 498.764 95.124ZM502.118 103.195C501.723 104.396 500.522 105.173 498.954 105.173C496.772 105.173 495.351 103.635 495.351 101.394V101.13H506.176V99.8262C506.176 95.0508 503.29 91.96 498.72 91.96C494.076 91.96 491.147 95.2119 491.147 100.222C491.147 105.246 494.047 108.337 498.881 108.337C502.763 108.337 505.575 106.271 506.044 103.195H502.118ZM530.331 92.2969H526.112L523.725 103.942H523.637L520.839 92.2969H516.737L513.954 103.942H513.866L511.493 92.2969H507.187L511.362 108H515.859L518.686 96.8965H518.774L521.615 108H526.171L530.331 92.2969ZM531.65 96.9111C531.65 99.2695 533.188 100.793 536.22 101.438L538.901 101.994C540.439 102.346 540.981 102.814 540.981 103.649C540.981 104.675 539.985 105.334 538.373 105.334C536.674 105.334 535.693 104.602 535.429 103.225H531.254C531.532 106.315 534.037 108.337 538.373 108.337C542.416 108.337 545.243 106.301 545.243 103.21C545.243 100.91 543.896 99.6211 540.614 98.9326L537.934 98.3613C536.352 98.0244 535.766 97.4824 535.766 96.6768C535.766 95.6367 536.747 94.9629 538.227 94.9629C539.809 94.9629 540.761 95.8271 540.893 97.1016H544.833C544.745 94.0254 542.255 91.96 538.227 91.96C534.228 91.96 531.65 93.9229 531.65 96.9111Z" fill="#EDF0F5"/>
</svg>
