<svg width="85" height="16" viewBox="0 0 85 16" fill="none" xmlns="http://www.w3.org/2000/svg">
<path d="M7.90459 13.1704C8.22238 12.9786 8.62028 12.9786 8.93808 13.1704L11.5968 14.7751C12.3541 15.2323 13.2884 14.5532 13.0873 13.6918L12.3817 10.6677C12.2974 10.3062 12.4202 9.92771 12.7008 9.68465L15.0512 7.64859C15.7198 7.06938 15.3623 5.97109 14.4809 5.89633L11.3887 5.63408C11.0191 5.60273 10.6972 5.3694 10.5525 5.0279L9.34204 2.17211C8.99745 1.35911 7.84522 1.35911 7.50062 2.17211L6.29019 5.0279C6.14544 5.3694 5.82357 5.60273 5.45398 5.63408L2.36177 5.89633C1.48032 5.97109 1.12289 7.06938 1.79151 7.64859L4.14186 9.68465C4.42244 9.92771 4.54529 10.3062 4.46093 10.6677L3.75532 13.6918C3.55431 14.5532 4.48857 15.2323 5.2459 14.7751L7.90459 13.1704Z" fill="#FFCC29"/>
<path d="M24.7474 13.1704C25.0652 12.9786 25.4631 12.9786 25.7808 13.1704L28.4395 14.7751C29.1969 15.2323 30.1311 14.5532 29.9301 13.6918L29.2245 10.6677C29.1402 10.3062 29.263 9.92771 29.5436 9.68465L31.8939 7.64859C32.5625 7.06938 32.2051 5.97109 31.3237 5.89633L28.2315 5.63408C27.8619 5.60273 27.54 5.3694 27.3953 5.0279L26.1848 2.17211C25.8402 1.35911 24.688 1.35911 24.3434 2.17211L23.133 5.0279C22.9882 5.3694 22.6663 5.60273 22.2968 5.63408L19.2045 5.89633C18.3231 5.97109 17.9657 7.06938 18.6343 7.64859L20.9846 9.68465C21.2652 9.92771 21.3881 10.3062 21.3037 10.6677L20.5981 13.6918C20.3971 14.5532 21.3313 15.2323 22.0887 14.7751L24.7474 13.1704Z" fill="#FFCC29"/>
<path d="M41.5899 13.1704C41.9077 12.9786 42.3056 12.9786 42.6234 13.1704L45.2821 14.7751C46.0394 15.2323 46.9737 14.5532 46.7726 13.6918L46.067 10.6677C45.9827 10.3062 46.1055 9.92771 46.3861 9.68465L48.7365 7.64859C49.4051 7.06938 49.0476 5.97109 48.1662 5.89633L45.074 5.63408C44.7044 5.60273 44.3825 5.3694 44.2378 5.0279L43.0273 2.17211C42.6828 1.35911 41.5305 1.35911 41.1859 2.17211L39.9755 5.0279C39.8307 5.3694 39.5089 5.60273 39.1393 5.63408L36.0471 5.89633C35.1656 5.97109 34.8082 7.06938 35.4768 7.64859L37.8272 9.68465C38.1077 9.92771 38.2306 10.3062 38.1462 10.6677L37.4406 13.6918C37.2396 14.5532 38.1739 15.2323 38.9312 14.7751L41.5899 13.1704Z" fill="#FFCC29"/>
<path d="M58.4327 13.1704C58.7505 12.9786 59.1484 12.9786 59.4662 13.1704L62.1248 14.7751C62.8822 15.2323 63.8164 14.5532 63.6154 13.6918L62.9098 10.6677C62.8255 10.3062 62.9483 9.92771 63.2289 9.68465L65.5792 7.64859C66.2479 7.06938 65.8904 5.97109 65.009 5.89633L61.9168 5.63408C61.5472 5.60273 61.2253 5.3694 61.0806 5.0279L59.8701 2.17211C59.5255 1.35911 58.3733 1.35911 58.0287 2.17211L56.8183 5.0279C56.6735 5.3694 56.3516 5.60273 55.9821 5.63408L52.8898 5.89633C52.0084 5.97109 51.651 7.06938 52.3196 7.64859L54.6699 9.68465C54.9505 9.92771 55.0734 10.3062 54.989 10.6677L54.2834 13.6918C54.0824 14.5532 55.0166 15.2323 55.774 14.7751L58.4327 13.1704Z" fill="#FFCC29"/>
<path d="M75.2752 13.1704C75.593 12.9786 75.9909 12.9786 76.3087 13.1704L78.9674 14.7751C79.7247 15.2323 80.659 14.5532 80.458 13.6918L79.7523 10.6677C79.668 10.3062 79.7908 9.92771 80.0714 9.68465L82.4218 7.64859C83.0904 7.06938 82.733 5.97109 81.8515 5.89633L78.7593 5.63408C78.3897 5.60273 78.0678 5.3694 77.9231 5.0279L76.7126 2.17211C76.3681 1.35911 75.2158 1.35911 74.8712 2.17211L73.6608 5.0279C73.516 5.3694 73.1942 5.60273 72.8246 5.63408L69.7324 5.89633C68.8509 5.97109 68.4935 7.06938 69.1621 7.64859L71.5125 9.68465C71.793 9.92771 71.9159 10.3062 71.8315 10.6677L71.1259 13.6918C70.9249 14.5532 71.8592 15.2323 72.6165 14.7751L75.2752 13.1704Z" fill="#FFCC29"/>
</svg>
