<svg width="126" height="50" viewBox="0 0 126 50" fill="none" xmlns="http://www.w3.org/2000/svg">
<path d="M1.6438 0.515625V3.86563H25.4719V0.515625H1.6438ZM28.8501 0.515625V3.86563H62.8094C62.8094 3.86563 59.3407 0.515625 54.7469 0.515625H28.8501ZM69.4704 0.515625V3.86563H90.0126L88.7938 0.515625H69.4704ZM104.744 0.515625L103.525 3.86563H123.884V0.515625H104.744ZM1.6438 7.03125V10.3812H25.4719V7.03125H1.6438ZM28.8501 7.03594V10.3797H66.7469C66.7469 10.3797 66.3047 7.80156 65.5329 7.03594H28.8501ZM69.4704 7.03594V10.3797H92.2829L91.1547 7.03594H69.4704ZM102.305 7.03594L101.177 10.3797H123.883V7.03594H102.305ZM8.49224 13.5469V16.9016H18.8126V13.5469H8.49224ZM35.6985 13.5469V16.9016H46.0188V13.5469H35.6985ZM56.0579 13.5469V16.9016H66.3782C66.3782 16.9016 67.0344 15.1297 67.0344 13.5469H56.0579ZM76.3204 13.5469V16.9016H94.6016L93.3829 13.5469H76.3204ZM100.059 13.5469L98.8344 16.9016H117.222V13.5469H100.059ZM8.4938 20.0672V23.4172H18.8141V20.0672H8.4938ZM35.7001 20.0672V23.4172H62.0594C62.0594 23.4172 64.2626 21.6984 64.9657 20.0672H35.7001ZM76.3204 20.0672V23.4172H86.6407V21.5516L87.2969 23.4172H106.203L106.906 21.5516V23.4172H117.227V20.0672H97.8516L96.8235 22.9047L95.7923 20.0672H76.3204ZM8.49224 26.5828V29.9328H18.8126V26.5828H8.49224ZM35.6985 26.5828V29.9328H64.9641C64.261 28.3078 62.0579 26.5828 62.0579 26.5828H35.6985ZM76.3188 26.5828V29.9328H86.6391V26.5828H76.3188ZM88.5141 26.5828L89.7641 29.9328H103.939L105.127 26.5828H88.5141ZM106.902 26.5828V29.9328H117.222V26.5828H106.902ZM8.49536 33.0984V36.4484H18.8157V33.0984H8.49536ZM35.7016 33.0984V36.4484H46.0219V33.0984H35.7016ZM56.061 33.0984V36.4484H67.036C67.036 34.8672 66.3797 33.0984 66.3797 33.0984H56.061ZM76.3235 33.0984V36.4484H86.6438V33.0984H76.3235ZM90.861 33.0984L92.0704 36.4484H101.57L102.789 33.0984H90.861ZM106.905 33.0984V36.4484H117.225V33.0984H106.905ZM1.83442 39.6141V42.9687H25.6626V39.6141H1.83442ZM28.8547 39.6141V42.9687H65.5391C66.311 42.2 66.7532 39.6141 66.7532 39.6141H28.8547ZM69.661 39.6141V42.9687H86.6376V39.6141H69.661ZM93.2079 39.6141L94.4516 42.9687H99.286L100.453 39.6141H93.2079ZM106.905 39.6141V42.9687H124.074V39.6141H106.905ZM1.83442 46.1344V49.4844H25.6626V46.1344H1.83442ZM28.8547 46.1344V49.4781H54.7469C59.3407 49.4781 62.8094 46.1344 62.8094 46.1344H28.8547ZM69.661 46.1344V49.4844H86.6376V46.1344H69.661ZM95.5672 46.1344L96.7626 49.475L96.9688 49.4797L98.1829 46.1359L95.5672 46.1344ZM106.906 46.1344V49.4844H124.075V46.1344H106.906Z" fill="white"/>
</svg>
