<svg width="100" height="80" viewBox="0 0 100 80" fill="none" xmlns="http://www.w3.org/2000/svg">
<path d="M96.6445 38.7378L92.8113 36.6498C91.1284 28.3911 87.1081 21.0051 81.4673 15.1772C78.2885 11.8738 74.611 9.10012 70.5285 6.91858V4.48773C70.5285 3.20997 68.0976 2.05688 64.1708 1.24659C60.4934 0.467472 55.507 0 50.022 0C48.0898 0 46.2199 0.0623296 44.4124 0.155824C35.8109 0.685625 29.5156 2.43085 29.5156 4.45656V6.88742C26.7731 8.35216 24.2176 10.0974 21.8491 12.0919C14.5253 18.3249 9.25849 26.8952 7.23278 36.6498L3.39952 38.7378C1.65429 39.6728 0.719345 41.6362 1.06216 43.5684L4.55261 63.171C4.89542 65.1656 6.51599 66.6615 8.51054 66.9108L14.3695 67.6276C17.5483 71.0557 21.5686 73.7359 26.2121 75.6993C32.4451 78.3483 39.7688 79.7507 47.6535 79.9688C48.4326 80 49.2429 80 50.022 80C56.0368 80 61.7711 79.3455 67.0068 78.0055C73.8631 76.2291 79.8467 73.2372 84.3656 68.9365C84.8954 68.4379 85.4252 67.9081 85.9239 67.3471L91.44 66.8173C93.4969 66.6303 95.1486 65.1032 95.5226 63.0464L98.9819 43.5372C99.3247 41.6362 98.3898 39.6728 96.6445 38.7378Z" fill="url(#paint0_linear)"/>
<path d="M50.0223 69.3104C39.6132 69.3104 31.0741 67.1601 25.3398 63.0775C19.7613 59.1196 17.0499 53.3541 17.0499 45.4694C17.0499 27.2692 31.8532 12.4659 50.0534 12.4659C68.2536 12.4659 83.0569 27.2692 83.0569 45.4694C83.0569 53.3541 80.3456 59.0884 74.7671 63.0775C68.9704 67.1601 60.4313 69.3104 50.0223 69.3104Z" fill="white"/>
<path d="M50.0221 61.7064C43.5399 61.7064 37.5251 57.9043 34.6891 52.0453L39.9248 49.5521C41.8258 53.4789 45.6902 55.9409 50.0221 55.9409C54.354 55.9409 58.2496 53.5101 60.1195 49.5521L65.3552 52.0453C62.5192 57.9043 56.5044 61.7064 50.0221 61.7064Z" fill="#121826"/>
<defs>
<linearGradient id="paint0_linear" x1="26.2376" y1="73.1891" x2="79.8263" y2="14.8488" gradientUnits="userSpaceOnUse">
<stop stop-color="#FF61D3"/>
<stop offset="0.5" stop-color="#B318FF"/>
<stop offset="1" stop-color="#00F0FF"/>
</linearGradient>
</defs>
</svg>
