<svg xmlns="http://www.w3.org/2000/svg" viewBox="0 0 94 122">
  <g id="container">
    <path fill="#fff" d="M8.1 89.9L47.6 110l38-20.1V11.3H8.1z"/>
    <path fill="#f2f3f2" d="M86.4 11.6L7.3 91.3l41 20.3 38.1-19.5z"/>
    <path d="M5.5 37.5v54.1l1.4.7 39.5 20.1 1.2.6 1.2-.6 38.1-20.1 1.4-.7V8.7H5.5v28.8zm2.6 52.6V11.3h77.6v78.8l-38.1 20.1L8.1 90.1z" fill="#dcdedc"/>
    <path id="logo" d="M46.9 12.6c.4 0 .8 0 1.2.1L46.9 15c-1.8-.1-3.4 1.3-3.5 3.1-.1 1.8 1.3 3.4 3.1 3.5h.4c.8 0 1.6-.3 2.2-.8l1.3 2.2c-1 .7-2.2 1.1-3.5 1.1-3.2.1-5.9-2.3-6-5.5-.1-3.2 2.3-5.9 5.5-6h.5zm4.1 4.9l1.5 2.5-1.5 2.4-1.4-2.4h-2.9l1.5-2.5H51zm-2.4-.9c0-.4.1-.8.3-1.1.2-.3.6-.6.9-.8l.2-.1c.4-.2.5-.3.5-.5s-.3-.4-.5-.4c-.4 0-.7.2-.9.6l-.5-.5c.1-.2.3-.4.5-.6.3-.2.6-.2.9-.2.3 0 .7.1.9.3.2.2.4.5.4.8 0 .5-.3.9-.9 1.1l-.3.2c-.3.2-.5.3-.6.6h1.8v.7l-2.7-.1zm-1.7 12.5l9.5-5.4v-15H37.3v14.9l9.6 5.5z" fill="#ff492c"/>
    <path id="banner" d="M90.2 64.5H3.6l-3.2 7 3.2 7h86.6l3.1-7z" fill="#2690ce"/>
  <path fill="#252530" transform="translate(27.09, 60)" d="M4.51 0.12Q3.31 0.12 2.42-0.26Q1.51-0.65 1.03-1.36Q0.54-2.07 0.54-3.01L0.54-3.01L0.54-3.34Q0.54-3.42 0.59-3.47Q0.65-3.52 0.72-3.52L0.72-3.52L2.43-3.52Q2.50-3.52 2.56-3.47Q2.61-3.42 2.61-3.34L2.61-3.34L2.61-3.12Q2.61-2.52 3.17-2.11Q3.72-1.69 4.67-1.69L4.67-1.69Q5.46-1.69 5.85-2.03Q6.24-2.37 6.24-2.86L6.24-2.86Q6.24-3.23 6-3.47Q5.76-3.72 5.35-3.91Q4.93-4.09 4.04-4.42L4.04-4.42Q3.03-4.77 2.33-5.13Q1.64-5.49 1.16-6.11Q0.69-6.73 0.69-7.65L0.69-7.65Q0.69-8.55 1.16-9.22Q1.62-9.90 2.44-10.26Q3.27-10.62 4.35-10.62L4.35-10.62Q5.49-10.62 6.38-10.21Q7.27-9.81 7.78-9.08Q8.28-8.36 8.28-7.39L8.28-7.39L8.28-7.17Q8.28-7.09 8.23-7.04Q8.17-6.99 8.10-6.99L8.10-6.99L6.38-6.99Q6.30-6.99 6.25-7.04Q6.19-7.09 6.19-7.17L6.19-7.17L6.19-7.29Q6.19-7.92 5.68-8.36Q5.16-8.80 4.26-8.80L4.26-8.80Q3.55-8.80 3.16-8.50Q2.76-8.21 2.76-7.68L2.76-7.68Q2.76-7.30 2.99-7.05Q3.23-6.79 3.68-6.59Q4.14-6.39 5.10-6.04L5.10-6.04Q6.17-5.65 6.77-5.35Q7.38-5.05 7.87-4.46Q8.36-3.87 8.36-2.92L8.36-2.92Q8.36-1.51 7.32-0.70Q6.29 0.12 4.51 0.12L4.51 0.12ZM16.53-4.65Q16.62-4.08 16.59-3.38L16.59-3.38Q16.57-3.19 16.39-3.19L16.39-3.19L11.76-3.19Q11.67-3.19 11.70-3.12L11.70-3.12Q11.74-2.82 11.86-2.52L11.86-2.52Q12.25-1.68 13.45-1.68L13.45-1.68Q14.41-1.69 14.97-2.46L14.97-2.46Q15.03-2.55 15.10-2.55L15.10-2.55Q15.15-2.55 15.21-2.49L15.21-2.49L16.29-1.43Q16.36-1.35 16.36-1.29L16.36-1.29Q16.36-1.26 16.30-1.17L16.30-1.17Q15.81-0.55 15.03-0.22Q14.25 0.12 13.32 0.12L13.32 0.12Q12.03 0.12 11.14-0.46Q10.24-1.05 9.85-2.10L9.85-2.10Q9.54-2.85 9.54-4.06L9.54-4.06Q9.54-4.89 9.76-5.52L9.76-5.52Q10.11-6.58 10.97-7.21Q11.83-7.84 13.02-7.84L13.02-7.84Q14.52-7.84 15.43-6.97Q16.34-6.10 16.53-4.65L16.53-4.65ZM13.03-6.01Q12.09-6.01 11.79-5.13L11.79-5.13Q11.73-4.93 11.68-4.65L11.68-4.65Q11.68-4.58 11.76-4.58L11.76-4.58L14.35-4.58Q14.44-4.58 14.41-4.65L14.41-4.65Q14.34-5.08 14.34-5.07L14.34-5.07Q14.20-5.52 13.87-5.77Q13.53-6.01 13.03-6.01L13.03-6.01ZM22.14-6.19Q22.14-6.12 22.09-6.07Q22.03-6.01 21.96-6.01L21.96-6.01L20.52-6.01Q20.45-6.01 20.45-5.94L20.45-5.94L20.45-2.76Q20.45-2.27 20.65-2.02Q20.85-1.78 21.30-1.78L21.30-1.78L21.79-1.78Q21.87-1.78 21.92-1.73Q21.97-1.68 21.97-1.60L21.97-1.60L21.97-0.18Q21.97-0.01 21.79 0.01L21.79 0.01Q21.16 0.04 20.89 0.04L20.89 0.04Q19.65 0.04 19.04-0.37Q18.42-0.78 18.40-1.92L18.40-1.92L18.40-5.94Q18.40-6.01 18.33-6.01L18.33-6.01L17.47-6.01Q17.40-6.01 17.35-6.07Q17.29-6.12 17.29-6.19L17.29-6.19L17.29-7.53Q17.29-7.60 17.35-7.66Q17.40-7.71 17.47-7.71L17.47-7.71L18.33-7.71Q18.40-7.71 18.40-7.79L18.40-7.79L18.40-9.57Q18.40-9.64 18.46-9.70Q18.51-9.75 18.58-9.75L18.58-9.75L20.27-9.75Q20.34-9.75 20.39-9.70Q20.45-9.64 20.45-9.57L20.45-9.57L20.45-7.79Q20.45-7.71 20.52-7.71L20.52-7.71L21.96-7.71Q22.03-7.71 22.09-7.66Q22.14-7.60 22.14-7.53L22.14-7.53L22.14-6.19ZM27.91-7.53Q27.91-7.60 27.97-7.66Q28.02-7.71 28.09-7.71L28.09-7.71L29.85-7.71Q29.92-7.71 29.98-7.66Q30.03-7.60 30.03-7.53L30.03-7.53L30.03-0.18Q30.03-0.10 29.98-0.05Q29.92 0 29.85 0L29.85 0L28.09 0Q28.02 0 27.97-0.05Q27.91-0.10 27.91-0.18L27.91-0.18L27.91-0.69Q27.91-0.73 27.88-0.74Q27.85-0.75 27.82-0.70L27.82-0.70Q27.22 0.10 25.96 0.10L25.96 0.10Q24.82 0.10 24.09-0.58Q23.35-1.27 23.35-2.52L23.35-2.52L23.35-7.53Q23.35-7.60 23.41-7.66Q23.46-7.71 23.53-7.71L23.53-7.71L25.27-7.71Q25.35-7.71 25.40-7.66Q25.45-7.60 25.45-7.53L25.45-7.53L25.45-3.04Q25.45-2.44 25.78-2.07Q26.10-1.69 26.67-1.69L26.67-1.69Q27.18-1.69 27.51-2.00Q27.84-2.31 27.91-2.80L27.91-2.80L27.91-7.53ZM38.47-5.64Q38.74-4.88 38.74-3.84L38.74-3.84Q38.74-2.80 38.46-1.96L38.46-1.96Q38.11-1.00 37.37-0.44Q36.63 0.12 35.53 0.12L35.53 0.12Q34.45 0.12 33.85-0.63L33.85-0.63Q33.82-0.67 33.79-0.66Q33.76-0.65 33.76-0.60L33.76-0.60L33.76 2.61Q33.76 2.69 33.71 2.74Q33.66 2.79 33.58 2.79L33.58 2.79L31.83 2.79Q31.75 2.79 31.70 2.74Q31.65 2.69 31.65 2.61L31.65 2.61L31.65-7.53Q31.65-7.60 31.70-7.66Q31.75-7.71 31.83-7.71L31.83-7.71L33.58-7.71Q33.66-7.71 33.71-7.66Q33.76-7.60 33.76-7.53L33.76-7.53L33.76-7.04Q33.76-6.99 33.79-6.98Q33.82-6.97 33.85-7.00L33.85-7.00Q34.48-7.83 35.59-7.83L35.59-7.83Q36.63-7.83 37.39-7.25Q38.14-6.67 38.47-5.64L38.47-5.64ZM36.18-2.28Q36.55-2.86 36.55-3.87L36.55-3.87Q36.55-4.81 36.24-5.37L36.24-5.37Q35.89-6.01 35.13-6.01L35.13-6.01Q34.44-6.01 34.09-5.37L34.09-5.37Q33.78-4.83 33.78-3.85L33.78-3.85Q33.78-2.85 34.11-2.29L34.11-2.29Q34.45-1.69 35.13-1.69L35.13-1.69Q35.80-1.69 36.18-2.28L36.18-2.28Z"/><path fill="#252530" transform="translate(21.66, 45)" d="M8.21-8.87Q8.21-8.79 8.15-8.74Q8.10-8.69 8.03-8.69L8.03-8.69L3.10-8.69Q3.03-8.69 3.03-8.61L3.03-8.61L3.03-6.29Q3.03-6.21 3.10-6.21L3.10-6.21L6.33-6.21Q6.40-6.21 6.46-6.16Q6.51-6.10 6.51-6.03L6.51-6.03L6.51-4.58Q6.51-4.50 6.46-4.45Q6.40-4.39 6.33-4.39L6.33-4.39L3.10-4.39Q3.03-4.39 3.03-4.32L3.03-4.32L3.03-1.89Q3.03-1.81 3.10-1.81L3.10-1.81L8.03-1.81Q8.10-1.81 8.15-1.76Q8.21-1.71 8.21-1.64L8.21-1.64L8.21-0.18Q8.21-0.10 8.15-0.05Q8.10 0 8.03 0L8.03 0L1.09 0Q1.02 0 0.97-0.05Q0.91-0.10 0.91-0.18L0.91-0.18L0.91-10.32Q0.91-10.39 0.97-10.45Q1.02-10.50 1.09-10.50L1.09-10.50L8.03-10.50Q8.10-10.50 8.15-10.45Q8.21-10.39 8.21-10.32L8.21-10.32L8.21-8.87ZM12.62-7.83Q13.59-7.83 14.36-7.49Q15.12-7.15 15.55-6.57Q15.97-5.98 15.97-5.26L15.97-5.26L15.97-0.18Q15.97-0.10 15.92-0.05Q15.87 0 15.79 0L15.79 0L14.04 0Q13.96 0 13.91-0.05Q13.86-0.10 13.86-0.18L13.86-0.18L13.86-0.67Q13.86-0.72 13.83-0.73Q13.80-0.75 13.77-0.70L13.77-0.70Q13.14 0.12 11.74 0.12L11.74 0.12Q10.57 0.12 9.86-0.45Q9.13-1.02 9.13-2.13L9.13-2.13Q9.13-3.28 9.95-3.92Q10.75-4.56 12.25-4.56L12.25-4.56L13.79-4.56Q13.86-4.56 13.86-4.63L13.86-4.63L13.86-4.96Q13.86-5.46 13.56-5.74Q13.26-6.01 12.66-6.01L12.66-6.01Q12.20-6.01 11.89-5.85Q11.58-5.68 11.49-5.38L11.49-5.38Q11.45-5.22 11.29-5.23L11.29-5.23L9.48-5.47Q9.30-5.50 9.31-5.61L9.31-5.61Q9.38-6.24 9.82-6.75Q10.26-7.26 10.99-7.54Q11.71-7.83 12.62-7.83L12.62-7.83ZM12.31-1.45Q12.96-1.45 13.41-1.80Q13.86-2.15 13.86-2.69L13.86-2.69L13.86-3.23Q13.86-3.30 13.79-3.30L13.79-3.30L12.71-3.30Q12.03-3.30 11.65-3.04Q11.27-2.79 11.27-2.32L11.27-2.32Q11.27-1.92 11.55-1.69Q11.83-1.45 12.31-1.45L12.31-1.45ZM20.54 0.10Q19.53 0.10 18.78-0.18Q18.03-0.46 17.62-0.97Q17.20-1.48 17.20-2.13L17.20-2.13L17.20-2.28Q17.20-2.35 17.26-2.41Q17.31-2.46 17.38-2.46L17.38-2.46L19.05-2.46Q19.13-2.46 19.18-2.41Q19.23-2.35 19.23-2.28L19.23-2.28L19.23-2.27Q19.23-1.93 19.60-1.70Q19.96-1.47 20.52-1.47L20.52-1.47Q21.03-1.47 21.34-1.67Q21.66-1.88 21.66-2.17L21.66-2.17Q21.66-2.44 21.39-2.58Q21.12-2.71 20.50-2.86L20.50-2.86Q19.80-3.04 19.39-3.21L19.39-3.21Q18.43-3.54 17.86-4.02Q17.29-4.50 17.29-5.40L17.29-5.40Q17.29-6.51 18.16-7.16Q19.02-7.81 20.45-7.81L20.45-7.81Q21.41-7.81 22.13-7.51Q22.84-7.20 23.24-6.64Q23.64-6.09 23.64-5.38L23.64-5.38Q23.64-5.31 23.59-5.26Q23.54-5.21 23.46-5.21L23.46-5.21L21.86-5.21Q21.78-5.21 21.73-5.26Q21.68-5.31 21.68-5.38L21.68-5.38Q21.68-5.71 21.34-5.94Q21-6.17 20.45-6.17L20.45-6.17Q19.95-6.17 19.63-5.98Q19.32-5.80 19.32-5.49L19.32-5.49Q19.32-5.19 19.63-5.04Q19.93-4.89 20.66-4.72L20.66-4.72Q20.82-4.68 21.03-4.63Q21.24-4.58 21.48-4.50L21.48-4.50Q22.55-4.18 23.16-3.69Q23.77-3.19 23.77-2.25L23.77-2.25Q23.77-1.14 22.90-0.52Q22.02 0.10 20.54 0.10L20.54 0.10ZM26.13-8.58Q25.62-8.58 25.28-8.92Q24.95-9.25 24.95-9.76L24.95-9.76Q24.95-10.29 25.28-10.62Q25.61-10.95 26.13-10.95L26.13-10.95Q26.66-10.95 26.98-10.62Q27.32-10.29 27.32-9.76L27.32-9.76Q27.32-9.25 26.98-8.92Q26.64-8.58 26.13-8.58L26.13-8.58ZM25.23 0Q25.16 0 25.10-0.05Q25.05-0.10 25.05-0.18L25.05-0.18L25.05-7.54Q25.05-7.62 25.10-7.67Q25.16-7.72 25.23-7.72L25.23-7.72L26.98-7.72Q27.06-7.72 27.11-7.67Q27.16-7.62 27.16-7.54L27.16-7.54L27.16-0.18Q27.16-0.10 27.11-0.05Q27.06 0 26.98 0L26.98 0L25.23 0ZM35.64-4.65Q35.73-4.08 35.70-3.38L35.70-3.38Q35.69-3.19 35.51-3.19L35.51-3.19L30.87-3.19Q30.78-3.19 30.81-3.12L30.81-3.12Q30.86-2.82 30.98-2.52L30.98-2.52Q31.37-1.68 32.56-1.68L32.56-1.68Q33.52-1.69 34.08-2.46L34.08-2.46Q34.14-2.55 34.22-2.55L34.22-2.55Q34.26-2.55 34.32-2.49L34.32-2.49L35.40-1.43Q35.48-1.35 35.48-1.29L35.48-1.29Q35.48-1.26 35.41-1.17L35.41-1.17Q34.92-0.55 34.14-0.22Q33.36 0.12 32.43 0.12L32.43 0.12Q31.14 0.12 30.25-0.46Q29.36-1.05 28.96-2.10L28.96-2.10Q28.65-2.85 28.65-4.06L28.65-4.06Q28.65-4.89 28.88-5.52L28.88-5.52Q29.22-6.58 30.08-7.21Q30.95-7.84 32.13-7.84L32.13-7.84Q33.63-7.84 34.54-6.97Q35.45-6.10 35.64-4.65L35.64-4.65ZM32.14-6.01Q31.20-6.01 30.90-5.13L30.90-5.13Q30.84-4.93 30.80-4.65L30.80-4.65Q30.80-4.58 30.87-4.58L30.87-4.58L33.47-4.58Q33.55-4.58 33.52-4.65L33.52-4.65Q33.45-5.08 33.45-5.07L33.45-5.07Q33.31-5.52 32.98-5.77Q32.64-6.01 32.14-6.01L32.14-6.01ZM39.98 0.10Q38.97 0.10 38.22-0.18Q37.47-0.46 37.06-0.97Q36.65-1.48 36.65-2.13L36.65-2.13L36.65-2.28Q36.65-2.35 36.70-2.41Q36.75-2.46 36.83-2.46L36.83-2.46L38.49-2.46Q38.57-2.46 38.62-2.41Q38.67-2.35 38.67-2.28L38.67-2.28L38.67-2.27Q38.67-1.93 39.04-1.70Q39.41-1.47 39.96-1.47L39.96-1.47Q40.47-1.47 40.79-1.67Q41.10-1.88 41.10-2.17L41.10-2.17Q41.10-2.44 40.83-2.58Q40.56-2.71 39.95-2.86L39.95-2.86Q39.24-3.04 38.84-3.21L38.84-3.21Q37.88-3.54 37.31-4.02Q36.74-4.50 36.74-5.40L36.74-5.40Q36.74-6.51 37.60-7.16Q38.46-7.81 39.89-7.81L39.89-7.81Q40.85-7.81 41.57-7.51Q42.29-7.20 42.68-6.64Q43.08-6.09 43.08-5.38L43.08-5.38Q43.08-5.31 43.03-5.26Q42.98-5.21 42.90-5.21L42.90-5.21L41.30-5.21Q41.22-5.21 41.17-5.26Q41.12-5.31 41.12-5.38L41.12-5.38Q41.12-5.71 40.78-5.94Q40.44-6.17 39.89-6.17L39.89-6.17Q39.39-6.17 39.08-5.98Q38.76-5.80 38.76-5.49L38.76-5.49Q38.76-5.19 39.07-5.04Q39.38-4.89 40.10-4.72L40.10-4.72Q40.26-4.68 40.47-4.63Q40.68-4.58 40.92-4.50L40.92-4.50Q41.99-4.18 42.60-3.69Q43.22-3.19 43.22-2.25L43.22-2.25Q43.22-1.14 42.34-0.52Q41.46 0.10 39.98 0.10L39.98 0.10ZM48.84-6.19Q48.84-6.12 48.79-6.07Q48.74-6.01 48.66-6.01L48.66-6.01L47.22-6.01Q47.15-6.01 47.15-5.94L47.15-5.94L47.15-2.76Q47.15-2.27 47.35-2.02Q47.55-1.78 48.00-1.78L48.00-1.78L48.50-1.78Q48.57-1.78 48.62-1.73Q48.68-1.68 48.68-1.60L48.68-1.60L48.68-0.18Q48.68-0.01 48.50 0.01L48.50 0.01Q47.87 0.04 47.60 0.04L47.60 0.04Q46.35 0.04 45.74-0.37Q45.12-0.78 45.11-1.92L45.11-1.92L45.11-5.94Q45.11-6.01 45.03-6.01L45.03-6.01L44.18-6.01Q44.10-6.01 44.05-6.07Q44.00-6.12 44.00-6.19L44.00-6.19L44.00-7.53Q44.00-7.60 44.05-7.66Q44.10-7.71 44.18-7.71L44.18-7.71L45.03-7.71Q45.11-7.71 45.11-7.79L45.11-7.79L45.11-9.57Q45.11-9.64 45.16-9.70Q45.21-9.75 45.29-9.75L45.29-9.75L46.97-9.75Q47.04-9.75 47.09-9.70Q47.15-9.64 47.15-9.57L47.15-9.57L47.15-7.79Q47.15-7.71 47.22-7.71L47.22-7.71L48.66-7.71Q48.74-7.71 48.79-7.66Q48.84-7.60 48.84-7.53L48.84-7.53L48.84-6.19Z"/><path fill="#fff" transform="translate(13.91, 75.4)" d="M2.99 0.08Q2.21 0.08 1.63-0.17Q1.05-0.42 0.73-0.87Q0.42-1.32 0.42-1.93L0.42-1.93L0.42-2.18Q0.42-2.23 0.46-2.27Q0.49-2.30 0.54-2.30L0.54-2.30L1.43-2.30Q1.48-2.30 1.52-2.27Q1.55-2.23 1.55-2.18L1.55-2.18L1.55-1.99Q1.55-1.53 1.96-1.23Q2.37-0.92 3.08-0.92L3.08-0.92Q3.69-0.92 4-1.18Q4.31-1.44 4.31-1.85L4.31-1.85Q4.31-2.13 4.14-2.33Q3.97-2.52 3.66-2.68Q3.34-2.84 2.71-3.08L2.71-3.08Q2-3.34 1.56-3.57Q1.12-3.80 0.83-4.20Q0.53-4.59 0.53-5.18L0.53-5.18Q0.53-6.06 1.17-6.57Q1.81-7.08 2.88-7.08L2.88-7.08Q3.63-7.08 4.21-6.82Q4.78-6.56 5.10-6.09Q5.42-5.63 5.42-5.02L5.42-5.02L5.42-4.85Q5.42-4.80 5.38-4.76Q5.35-4.73 5.30-4.73L5.30-4.73L4.40-4.73Q4.35-4.73 4.32-4.76Q4.28-4.80 4.28-4.85L4.28-4.85L4.28-4.96Q4.28-5.43 3.90-5.75Q3.51-6.08 2.83-6.08L2.83-6.08Q2.28-6.08 1.98-5.85Q1.67-5.62 1.67-5.20L1.67-5.20Q1.67-4.90 1.83-4.71Q1.99-4.52 2.31-4.37Q2.63-4.21 3.30-3.97L3.30-3.97Q4.01-3.70 4.44-3.48Q4.86-3.26 5.17-2.87Q5.47-2.47 5.47-1.88L5.47-1.88Q5.47-0.98 4.80-0.45Q4.14 0.08 2.99 0.08L2.99 0.08ZM12-5.19Q12.77-5.19 13.21-4.73Q13.64-4.26 13.64-3.43L13.64-3.43L13.64-0.12Q13.64-0.07 13.61-0.04Q13.57 0 13.52 0L13.52 0L12.61 0Q12.56 0 12.53-0.04Q12.49-0.07 12.49-0.12L12.49-0.12L12.49-3.19Q12.49-3.65 12.25-3.92Q12-4.19 11.59-4.19L11.59-4.19Q11.18-4.19 10.92-3.92Q10.66-3.65 10.66-3.20L10.66-3.20L10.66-0.12Q10.66-0.07 10.63-0.04Q10.59 0 10.54 0L10.54 0L9.63 0Q9.58 0 9.54-0.04Q9.51-0.07 9.51-0.12L9.51-0.12L9.51-3.19Q9.51-3.65 9.26-3.92Q9.01-4.19 8.60-4.19L8.60-4.19Q8.22-4.19 7.97-3.97Q7.73-3.75 7.69-3.37L7.69-3.37L7.69-0.12Q7.69-0.07 7.66-0.04Q7.62 0 7.57 0L7.57 0L6.65 0Q6.60 0 6.57-0.04Q6.53-0.07 6.53-0.12L6.53-0.12L6.53-4.99Q6.53-5.04 6.57-5.08Q6.60-5.11 6.65-5.11L6.65-5.11L7.57-5.11Q7.62-5.11 7.66-5.08Q7.69-5.04 7.69-4.99L7.69-4.99L7.69-4.66Q7.69-4.63 7.71-4.62Q7.73-4.61 7.75-4.64L7.75-4.64Q7.97-4.92 8.29-5.05Q8.62-5.19 9.02-5.19L9.02-5.19Q9.51-5.19 9.88-4.99Q10.25-4.79 10.45-4.41L10.45-4.41Q10.48-4.37 10.52-4.41L10.52-4.41Q10.74-4.81 11.13-5Q11.52-5.19 12-5.19L12-5.19ZM16.77-5.19Q17.40-5.19 17.88-4.97Q18.36-4.75 18.62-4.37Q18.88-3.98 18.88-3.49L18.88-3.49L18.88-0.12Q18.88-0.07 18.85-0.04Q18.81 0 18.76 0L18.76 0L17.84 0Q17.79 0 17.76-0.04Q17.72-0.07 17.72-0.12L17.72-0.12L17.72-0.44Q17.72-0.47 17.70-0.48Q17.68-0.48 17.66-0.46L17.66-0.46Q17.17 0.08 16.24 0.08L16.24 0.08Q15.49 0.08 15.01-0.30Q14.52-0.68 14.52-1.43L14.52-1.43Q14.52-2.21 15.07-2.65Q15.61-3.08 16.60-3.08L16.60-3.08L17.67-3.08Q17.72-3.08 17.72-3.13L17.72-3.13L17.72-3.37Q17.72-3.76 17.49-3.98Q17.26-4.19 16.80-4.19L16.80-4.19Q16.42-4.19 16.19-4.05Q15.95-3.92 15.89-3.68L15.89-3.68Q15.86-3.56 15.75-3.58L15.75-3.58L14.78-3.70Q14.73-3.71 14.70-3.73Q14.66-3.76 14.67-3.80L14.67-3.80Q14.75-4.41 15.33-4.80Q15.90-5.19 16.77-5.19L16.77-5.19ZM16.53-0.84Q17.02-0.84 17.37-1.10Q17.72-1.36 17.72-1.76L17.72-1.76L17.72-2.23Q17.72-2.28 17.67-2.28L17.67-2.28L16.83-2.28Q16.30-2.28 16.00-2.08Q15.69-1.88 15.69-1.51L15.69-1.51Q15.69-1.19 15.93-1.02Q16.16-0.84 16.53-0.84L16.53-0.84ZM20.16 0Q20.11 0 20.08-0.04Q20.04-0.07 20.04-0.12L20.04-0.12L20.04-6.88Q20.04-6.93 20.08-6.96Q20.11-7 20.16-7L20.16-7L21.08-7Q21.13-7 21.17-6.96Q21.20-6.93 21.20-6.88L21.20-6.88L21.20-0.12Q21.20-0.07 21.17-0.04Q21.13 0 21.08 0L21.08 0L20.16 0ZM22.55 0Q22.50 0 22.47-0.04Q22.43-0.07 22.43-0.12L22.43-0.12L22.43-6.88Q22.43-6.93 22.47-6.96Q22.50-7 22.55-7L22.55-7L23.47-7Q23.52-7 23.56-6.96Q23.59-6.93 23.59-6.88L23.59-6.88L23.59-0.12Q23.59-0.07 23.56-0.04Q23.52 0 23.47 0L23.47 0L22.55 0ZM30.84-3.65Q30.78-3.62 30.84-3.59L30.84-3.59Q31.86-3.11 31.86-1.94L31.86-1.94Q31.86-0.99 31.23-0.49Q30.59 0 29.57 0L29.57 0L27.05 0Q27.00 0 26.97-0.04Q26.93-0.07 26.93-0.12L26.93-0.12L26.93-6.88Q26.93-6.93 26.97-6.96Q27.00-7 27.05-7L27.05-7L29.49-7Q30.58-7 31.17-6.53Q31.76-6.06 31.76-5.11L31.76-5.11Q31.76-4.06 30.84-3.65L30.84-3.65ZM28.14-6Q28.09-6 28.09-5.95L28.09-5.95L28.09-4.10Q28.09-4.05 28.14-4.05L28.14-4.05L29.49-4.05Q30.02-4.05 30.33-4.30Q30.63-4.56 30.63-5.01L30.63-5.01Q30.63-5.47 30.33-5.74Q30.02-6 29.49-6L29.49-6L28.14-6ZM29.57-1.01Q30.09-1.01 30.40-1.29Q30.70-1.57 30.70-2.05L30.70-2.05Q30.70-2.54 30.39-2.81Q30.08-3.09 29.55-3.09L29.55-3.09L28.14-3.09Q28.09-3.09 28.09-3.04L28.09-3.04L28.09-1.06Q28.09-1.01 28.14-1.01L28.14-1.01L29.57-1.01ZM35.97-4.99Q35.97-5.04 36.00-5.08Q36.04-5.11 36.09-5.11L36.09-5.11L37-5.11Q37.05-5.11 37.09-5.08Q37.12-5.04 37.12-4.99L37.12-4.99L37.12-0.12Q37.12-0.07 37.09-0.04Q37.05 0 37 0L37 0L36.09 0Q36.04 0 36.00-0.04Q35.97-0.07 35.97-0.12L35.97-0.12L35.97-0.44Q35.97-0.47 35.95-0.48Q35.93-0.49 35.91-0.46L35.91-0.46Q35.50 0.07 34.68 0.07L34.68 0.07Q33.92 0.07 33.41-0.37Q32.89-0.81 32.89-1.62L32.89-1.62L32.89-4.99Q32.89-5.04 32.92-5.08Q32.96-5.11 33.01-5.11L33.01-5.11L33.93-5.11Q33.98-5.11 34.02-5.08Q34.05-5.04 34.05-4.99L34.05-4.99L34.05-1.95Q34.05-1.48 34.30-1.20Q34.54-0.92 34.98-0.92L34.98-0.92Q35.43-0.92 35.70-1.20Q35.97-1.48 35.97-1.95L35.97-1.95L35.97-4.99ZM40.26 0.06Q39.63 0.06 39.15-0.13Q38.68-0.31 38.42-0.64Q38.16-0.96 38.16-1.36L38.16-1.36L38.16-1.45Q38.16-1.50 38.19-1.54Q38.23-1.57 38.28-1.57L38.28-1.57L39.16-1.57Q39.21-1.57 39.24-1.54Q39.28-1.50 39.28-1.45L39.28-1.45L39.28-1.43Q39.28-1.18 39.55-0.99Q39.83-0.81 40.25-0.81L40.25-0.81Q40.65-0.81 40.90-0.97Q41.15-1.14 41.15-1.39L41.15-1.39Q41.15-1.62 40.94-1.74Q40.74-1.85 40.28-1.98L40.28-1.98L39.90-2.10Q39.39-2.25 39.04-2.42Q38.69-2.59 38.45-2.89Q38.21-3.18 38.21-3.64L38.21-3.64Q38.21-4.34 38.76-4.75Q39.31-5.17 40.21-5.17L40.21-5.17Q40.82-5.17 41.28-4.98Q41.74-4.78 41.99-4.44Q42.24-4.09 42.24-3.65L42.24-3.65Q42.24-3.60 42.20-3.56Q42.17-3.53 42.12-3.53L42.12-3.53L41.27-3.53Q41.22-3.53 41.18-3.56Q41.15-3.60 41.15-3.65L41.15-3.65Q41.15-3.91 40.89-4.08Q40.64-4.26 40.20-4.26L40.20-4.26Q39.81-4.26 39.56-4.12Q39.32-3.97 39.32-3.71L39.32-3.71Q39.32-3.47 39.55-3.35Q39.79-3.22 40.34-3.07L40.34-3.07L40.56-3.01Q41.09-2.85 41.45-2.69Q41.81-2.52 42.06-2.23Q42.31-1.93 42.31-1.46L42.31-1.46Q42.31-0.75 41.75-0.35Q41.19 0.06 40.26 0.06L40.26 0.06ZM43.95-5.81Q43.64-5.81 43.44-6.01Q43.24-6.21 43.24-6.52L43.24-6.52Q43.24-6.83 43.44-7.03Q43.64-7.23 43.95-7.23L43.95-7.23Q44.26-7.23 44.46-7.03Q44.66-6.83 44.66-6.52L44.66-6.52Q44.66-6.21 44.46-6.01Q44.26-5.81 43.95-5.81L43.95-5.81ZM43.47 0Q43.42 0 43.38-0.04Q43.35-0.07 43.35-0.12L43.35-0.12L43.35-5Q43.35-5.05 43.38-5.08Q43.42-5.12 43.47-5.12L43.47-5.12L44.39-5.12Q44.44-5.12 44.47-5.08Q44.51-5.05 44.51-5L44.51-5L44.51-0.12Q44.51-0.07 44.47-0.04Q44.44 0 44.39 0L44.39 0L43.47 0ZM48.29-5.19Q49.10-5.19 49.58-4.71Q50.07-4.23 50.07-3.40L50.07-3.40L50.07-0.12Q50.07-0.07 50.03-0.04Q50.00 0 49.95 0L49.95 0L49.03 0Q48.98 0 48.94-0.04Q48.91-0.07 48.91-0.12L48.91-0.12L48.91-3.16Q48.91-3.62 48.65-3.91Q48.39-4.19 47.96-4.19L47.96-4.19Q47.53-4.19 47.26-3.91Q47.00-3.63 47.00-3.17L47.00-3.17L47.00-0.12Q47.00-0.07 46.96-0.04Q46.93 0 46.88 0L46.88 0L45.96 0Q45.91 0 45.87-0.04Q45.84-0.07 45.84-0.12L45.84-0.12L45.84-4.99Q45.84-5.04 45.87-5.08Q45.91-5.11 45.96-5.11L45.96-5.11L46.88-5.11Q46.93-5.11 46.96-5.08Q47.00-5.04 47.00-4.99L47.00-4.99L47.00-4.67Q47.00-4.64 47.02-4.63Q47.04-4.62 47.05-4.65L47.05-4.65Q47.46-5.19 48.29-5.19L48.29-5.19ZM55.55-3.13Q55.59-2.88 55.59-2.57L55.59-2.57L55.58-2.26Q55.58-2.14 55.46-2.14L55.46-2.14L52.33-2.14Q52.28-2.14 52.28-2.09L52.28-2.09Q52.31-1.76 52.37-1.64L52.37-1.64Q52.61-0.92 53.54-0.91L53.54-0.91Q54.22-0.91 54.62-1.47L54.62-1.47Q54.66-1.53 54.72-1.53L54.72-1.53Q54.76-1.53 54.79-1.50L54.79-1.50L55.41-0.99Q55.50-0.92 55.44-0.83L55.44-0.83Q55.13-0.39 54.61-0.15Q54.10 0.09 53.47 0.09L53.47 0.09Q52.69 0.09 52.14-0.26Q51.60-0.61 51.35-1.24L51.35-1.24Q51.12-1.78 51.12-2.74L51.12-2.74Q51.12-3.32 51.24-3.68L51.24-3.68Q51.44-4.38 51.99-4.79Q52.55-5.19 53.33-5.19L53.33-5.19Q55.30-5.19 55.55-3.13L55.55-3.13ZM53.33-4.19Q52.96-4.19 52.71-4.00Q52.47-3.82 52.37-3.49L52.37-3.49Q52.31-3.32 52.29-3.05L52.29-3.05Q52.27-3 52.33-3L52.33-3L54.36-3Q54.41-3 54.41-3.05L54.41-3.05Q54.39-3.30 54.35-3.43L54.35-3.43Q54.26-3.79 53.99-3.99Q53.73-4.19 53.33-4.19L53.33-4.19ZM58.47 0.06Q57.84 0.06 57.36-0.13Q56.89-0.31 56.63-0.64Q56.37-0.96 56.37-1.36L56.37-1.36L56.37-1.45Q56.37-1.50 56.40-1.54Q56.44-1.57 56.49-1.57L56.49-1.57L57.37-1.57Q57.42-1.57 57.45-1.54Q57.49-1.50 57.49-1.45L57.49-1.45L57.49-1.43Q57.49-1.18 57.76-0.99Q58.04-0.81 58.46-0.81L58.46-0.81Q58.86-0.81 59.11-0.97Q59.36-1.14 59.36-1.39L59.36-1.39Q59.36-1.62 59.15-1.74Q58.95-1.85 58.49-1.98L58.49-1.98L58.11-2.10Q57.60-2.25 57.25-2.42Q56.90-2.59 56.66-2.89Q56.42-3.18 56.42-3.64L56.42-3.64Q56.42-4.34 56.97-4.75Q57.52-5.17 58.42-5.17L58.42-5.17Q59.03-5.17 59.49-4.98Q59.95-4.78 60.20-4.44Q60.45-4.09 60.45-3.65L60.45-3.65Q60.45-3.60 60.41-3.56Q60.38-3.53 60.33-3.53L60.33-3.53L59.48-3.53Q59.43-3.53 59.39-3.56Q59.36-3.60 59.36-3.65L59.36-3.65Q59.36-3.91 59.10-4.08Q58.85-4.26 58.41-4.26L58.41-4.26Q58.02-4.26 57.77-4.12Q57.53-3.97 57.53-3.71L57.53-3.71Q57.53-3.47 57.76-3.35Q58.00-3.22 58.55-3.07L58.55-3.07L58.77-3.01Q59.30-2.85 59.66-2.69Q60.02-2.52 60.27-2.23Q60.52-1.93 60.52-1.46L60.52-1.46Q60.52-0.75 59.96-0.35Q59.40 0.06 58.47 0.06L58.47 0.06ZM63.30 0.06Q62.67 0.06 62.19-0.13Q61.72-0.31 61.46-0.64Q61.20-0.96 61.20-1.36L61.20-1.36L61.20-1.45Q61.20-1.50 61.23-1.54Q61.27-1.57 61.32-1.57L61.32-1.57L62.20-1.57Q62.25-1.57 62.28-1.54Q62.32-1.50 62.32-1.45L62.32-1.45L62.32-1.43Q62.32-1.18 62.59-0.99Q62.87-0.81 63.29-0.81L63.29-0.81Q63.69-0.81 63.94-0.97Q64.19-1.14 64.19-1.39L64.19-1.39Q64.19-1.62 63.98-1.74Q63.78-1.85 63.32-1.98L63.32-1.98L62.94-2.10Q62.43-2.25 62.08-2.42Q61.73-2.59 61.49-2.89Q61.25-3.18 61.25-3.64L61.25-3.64Q61.25-4.34 61.80-4.75Q62.35-5.17 63.25-5.17L63.25-5.17Q63.86-5.17 64.32-4.98Q64.78-4.78 65.03-4.44Q65.28-4.09 65.28-3.65L65.28-3.65Q65.28-3.60 65.24-3.56Q65.21-3.53 65.16-3.53L65.16-3.53L64.31-3.53Q64.26-3.53 64.22-3.56Q64.19-3.60 64.19-3.65L64.19-3.65Q64.19-3.91 63.93-4.08Q63.68-4.26 63.24-4.26L63.24-4.26Q62.85-4.26 62.60-4.12Q62.36-3.97 62.36-3.71L62.36-3.71Q62.36-3.47 62.59-3.35Q62.83-3.22 63.38-3.07L63.38-3.07L63.60-3.01Q64.13-2.85 64.49-2.69Q64.85-2.52 65.10-2.23Q65.35-1.93 65.35-1.46L65.35-1.46Q65.35-0.75 64.79-0.35Q64.23 0.06 63.30 0.06L63.30 0.06Z"/><path fill="#252530" transform="translate(35.03, 89.5)" d="M5.46-5.91Q5.46-5.86 5.42-5.83Q5.39-5.79 5.34-5.79L5.34-5.79L2.07-5.79Q2.02-5.79 2.02-5.74L2.02-5.74L2.02-4.19Q2.02-4.14 2.07-4.14L2.07-4.14L4.22-4.14Q4.27-4.14 4.30-4.11Q4.34-4.07 4.34-4.02L4.34-4.02L4.34-3.05Q4.34-3 4.30-2.96Q4.27-2.93 4.22-2.93L4.22-2.93L2.07-2.93Q2.02-2.93 2.02-2.88L2.02-2.88L2.02-0.12Q2.02-0.07 1.99-0.04Q1.95 0 1.90 0L1.90 0L0.73 0Q0.68 0 0.65-0.04Q0.61-0.07 0.61-0.12L0.61-0.12L0.61-6.88Q0.61-6.93 0.65-6.96Q0.68-7 0.73-7L0.73-7L5.34-7Q5.39-7 5.42-6.96Q5.46-6.93 5.46-6.88L5.46-6.88L5.46-5.91ZM9.88 0Q9.78 0 9.75-0.10L9.75-0.10L9.45-1.08Q9.43-1.12 9.40-1.12L9.40-1.12L6.94-1.12Q6.91-1.12 6.89-1.08L6.89-1.08L6.60-0.10Q6.57 0 6.47 0L6.47 0L5.20 0Q5.14 0 5.11-0.04Q5.08-0.07 5.10-0.14L5.10-0.14L7.26-6.90Q7.29-7 7.39-7L7.39-7L8.96-7Q9.06-7 9.09-6.90L9.09-6.90L11.25-0.14Q11.26-0.12 11.26-0.09L11.26-0.09Q11.26 0 11.15 0L11.15 0L9.88 0ZM7.25-2.27Q7.24-2.21 7.29-2.21L7.29-2.21L9.05-2.21Q9.11-2.21 9.09-2.27L9.09-2.27L8.19-5.24Q8.18-5.28 8.16-5.28Q8.14-5.27 8.13-5.24L8.13-5.24L7.25-2.27ZM12.26 0Q12.21 0 12.18-0.04Q12.14-0.07 12.14-0.12L12.14-0.12L12.14-6.88Q12.14-6.93 12.18-6.96Q12.21-7 12.26-7L12.26-7L13.43-7Q13.48-7 13.52-6.96Q13.55-6.93 13.55-6.88L13.55-6.88L13.55-1.26Q13.55-1.21 13.60-1.21L13.60-1.21L16.87-1.21Q16.92-1.21 16.96-1.18Q16.99-1.14 16.99-1.09L16.99-1.09L16.99-0.12Q16.99-0.07 16.96-0.04Q16.92 0 16.87 0L16.87 0L12.26 0ZM17.98 0Q17.93 0 17.89-0.04Q17.86-0.07 17.86-0.12L17.86-0.12L17.86-6.88Q17.86-6.93 17.89-6.96Q17.93-7 17.98-7L17.98-7L19.15-7Q19.20-7 19.23-6.96Q19.27-6.93 19.27-6.88L19.27-6.88L19.27-1.26Q19.27-1.21 19.32-1.21L19.32-1.21L22.59-1.21Q22.64-1.21 22.68-1.18Q22.71-1.14 22.71-1.09L22.71-1.09L22.71-0.12Q22.71-0.07 22.68-0.04Q22.64 0 22.59 0L22.59 0L17.98 0Z"/><path fill="#252530" transform="translate(36.68, 98.9)" d="M2.33-1.27Q2.31-1.25 2.32-1.23Q2.33-1.21 2.36-1.21L2.36-1.21L5.07-1.21Q5.12-1.21 5.16-1.18Q5.19-1.14 5.19-1.09L5.19-1.09L5.19-0.12Q5.19-0.07 5.16-0.04Q5.12 0 5.07 0L5.07 0L0.57 0Q0.52 0 0.48-0.04Q0.45-0.07 0.45-0.12L0.45-0.12L0.45-1.04Q0.45-1.13 0.51-1.19L0.51-1.19Q1-1.67 1.51-2.23Q2.02-2.80 2.15-2.94L2.15-2.94Q2.43-3.27 2.72-3.57L2.72-3.57Q3.63-4.58 3.63-5.07L3.63-5.07Q3.63-5.42 3.38-5.65Q3.13-5.87 2.73-5.87L2.73-5.87Q2.33-5.87 2.08-5.65Q1.83-5.42 1.83-5.05L1.83-5.05L1.83-4.80Q1.83-4.75 1.79-4.71Q1.76-4.68 1.71-4.68L1.71-4.68L0.53-4.68Q0.48-4.68 0.45-4.71Q0.41-4.75 0.41-4.80L0.41-4.80L0.41-5.27Q0.44-5.81 0.75-6.23Q1.06-6.64 1.57-6.86Q2.09-7.08 2.73-7.08L2.73-7.08Q3.44-7.08 3.97-6.82Q4.49-6.55 4.78-6.10Q5.06-5.65 5.06-5.10L5.06-5.10Q5.06-4.68 4.85-4.24Q4.64-3.80 4.22-3.29L4.22-3.29Q3.91-2.90 3.55-2.52Q3.19-2.14 2.48-1.42L2.48-1.42L2.33-1.27ZM8.44 0.11Q7.34 0.11 6.70-0.51Q6.06-1.12 6.06-2.18L6.06-2.18L6.06-4.82Q6.06-5.86 6.70-6.47Q7.34-7.08 8.44-7.08L8.44-7.08Q9.54-7.08 10.19-6.47Q10.83-5.86 10.83-4.82L10.83-4.82L10.83-2.18Q10.83-1.12 10.19-0.51Q9.54 0.11 8.44 0.11L8.44 0.11ZM8.44-1.10Q8.89-1.10 9.16-1.38Q9.42-1.65 9.42-2.11L9.42-2.11L9.42-4.86Q9.42-5.32 9.16-5.59Q8.89-5.87 8.44-5.87L8.44-5.87Q8-5.87 7.74-5.59Q7.47-5.32 7.47-4.86L7.47-4.86L7.47-2.11Q7.47-1.65 7.74-1.38Q8-1.10 8.44-1.10L8.44-1.10ZM13.63-1.27Q13.61-1.25 13.62-1.23Q13.63-1.21 13.66-1.21L13.66-1.21L16.37-1.21Q16.42-1.21 16.46-1.18Q16.49-1.14 16.49-1.09L16.49-1.09L16.49-0.12Q16.49-0.07 16.46-0.04Q16.42 0 16.37 0L16.37 0L11.87 0Q11.82 0 11.79-0.04Q11.75-0.07 11.75-0.12L11.75-0.12L11.75-1.04Q11.75-1.13 11.81-1.19L11.81-1.19Q12.30-1.67 12.81-2.23Q13.32-2.80 13.45-2.94L13.45-2.94Q13.73-3.27 14.02-3.57L14.02-3.57Q14.93-4.58 14.93-5.07L14.93-5.07Q14.93-5.42 14.68-5.65Q14.43-5.87 14.03-5.87L14.03-5.87Q13.63-5.87 13.38-5.65Q13.13-5.42 13.13-5.05L13.13-5.05L13.13-4.80Q13.13-4.75 13.10-4.71Q13.06-4.68 13.01-4.68L13.01-4.68L11.83-4.68Q11.78-4.68 11.75-4.71Q11.71-4.75 11.71-4.80L11.71-4.80L11.71-5.27Q11.74-5.81 12.05-6.23Q12.36-6.64 12.88-6.86Q13.39-7.08 14.03-7.08L14.03-7.08Q14.74-7.08 15.27-6.82Q15.79-6.55 16.08-6.10Q16.36-5.65 16.36-5.10L16.36-5.10Q16.36-4.68 16.15-4.24Q15.94-3.80 15.52-3.29L15.52-3.29Q15.21-2.90 14.85-2.52Q14.49-2.14 13.78-1.42L13.78-1.42L13.63-1.27ZM18.34-6.97Q18.39-7 18.49-7L18.49-7L19.70-7Q19.75-7 19.79-6.96Q19.82-6.93 19.82-6.88L19.82-6.88L19.82-0.12Q19.82-0.07 19.79-0.04Q19.75 0 19.70 0L19.70 0L18.53 0Q18.48 0 18.45-0.04Q18.41-0.07 18.41-0.12L18.41-0.12L18.41-5.60Q18.41-5.62 18.39-5.64Q18.37-5.66 18.35-5.65L18.35-5.65L17.36-5.38L17.32-5.37Q17.23-5.37 17.23-5.48L17.23-5.48L17.20-6.34Q17.20-6.44 17.29-6.48L17.29-6.48L18.34-6.97Z"/></g>
</svg>