<svg width="563" height="120" viewBox="0 0 563 120" fill="none" xmlns="http://www.w3.org/2000/svg">
<path d="M0 44.0729H49.7738H80V14.1182L0 44.0729Z" fill="#FF9D28"/>
<path d="M80 14.1176V120L117.828 0L80 14.1176Z" fill="#68C5ED"/>
<path d="M80 44.0723H49.7737L80 119.909V44.0723V44.0723Z" fill="#044D80"/>
<path d="M0 44.0723L57.5566 63.5293L49.7738 44.0723H0Z" fill="#E54747"/>
<path d="M187.58 3.63326C188.314 2.14692 190.434 2.14692 191.167 3.63326L198.657 18.8058C198.948 19.3955 199.51 19.8044 200.161 19.8995L216.912 22.348C218.552 22.5877 219.205 24.6034 218.018 25.7597L205.9 37.5625C205.429 38.022 205.213 38.6843 205.325 39.3333L208.184 56.0053C208.464 57.6392 206.749 58.8851 205.282 58.1135L190.305 50.2372C189.722 49.9307 189.026 49.9307 188.443 50.2372L173.466 58.1135C171.999 58.8851 170.284 57.6392 170.564 56.0053L173.423 39.3333C173.534 38.6843 173.319 38.022 172.847 37.5625L160.729 25.7597C159.542 24.6034 160.196 22.5877 161.836 22.348L178.587 19.8995C179.238 19.8044 179.8 19.3955 180.091 18.8058L187.58 3.63326Z" fill="#F1A246"/>
<path d="M260.672 3.63326C261.406 2.14692 263.525 2.14692 264.259 3.63326L271.748 18.8058C272.039 19.3955 272.602 19.8044 273.252 19.8995L290.004 22.348C291.643 22.5877 292.297 24.6034 291.11 25.7597L278.992 37.5625C278.52 38.022 278.305 38.6843 278.416 39.3333L281.275 56.0053C281.556 57.6392 279.841 58.8851 278.373 58.1135L263.396 50.2372C262.813 49.9307 262.117 49.9307 261.534 50.2372L246.557 58.1135C245.09 58.8851 243.375 57.6392 243.655 56.0053L246.515 39.3333C246.626 38.6843 246.411 38.022 245.939 37.5625L233.821 25.7597C232.634 24.6034 233.287 22.5877 234.927 22.348L251.678 19.8995C252.329 19.8044 252.892 19.3955 253.183 18.8058L260.672 3.63326Z" fill="#F1A246"/>
<path d="M333.763 3.63326C334.497 2.14692 336.617 2.14692 337.35 3.63326L344.84 18.8058C345.131 19.3955 345.693 19.8044 346.344 19.8995L363.095 22.348C364.735 22.5877 365.388 24.6034 364.201 25.7597L352.083 37.5625C351.612 38.022 351.396 38.6843 351.508 39.3333L354.367 56.0053C354.647 57.6392 352.932 58.8851 351.465 58.1135L336.488 50.2372C335.905 49.9307 335.209 49.9307 334.626 50.2372L319.649 58.1135C318.182 58.8851 316.466 57.6392 316.747 56.0053L319.606 39.3333C319.717 38.6843 319.502 38.022 319.03 37.5625L306.912 25.7597C305.725 24.6034 306.379 22.5877 308.019 22.348L324.77 19.8995C325.421 19.8044 325.983 19.3955 326.274 18.8058L333.763 3.63326Z" fill="#F1A246"/>
<path d="M406.855 3.63326C407.589 2.14692 409.708 2.14692 410.442 3.63326L417.931 18.8058C418.222 19.3955 418.784 19.8044 419.435 19.8995L436.186 22.348C437.826 22.5877 438.48 24.6034 437.293 25.7597L425.175 37.5625C424.703 38.022 424.488 38.6843 424.599 39.3333L427.458 56.0053C427.739 57.6392 426.024 58.8851 424.556 58.1135L409.579 50.2372C408.996 49.9307 408.3 49.9307 407.717 50.2372L392.74 58.1135C391.273 58.8851 389.558 57.6392 389.838 56.0053L392.698 39.3333C392.809 38.6843 392.594 38.022 392.122 37.5625L380.004 25.7597C378.817 24.6034 379.47 22.5877 381.11 22.348L397.861 19.8995C398.512 19.8044 399.074 19.3955 399.366 18.8058L406.855 3.63326Z" fill="#F1A246"/>
<path d="M479.946 3.63326C480.68 2.14692 482.8 2.14692 483.533 3.63326L491.023 18.8058C491.314 19.3955 491.876 19.8044 492.527 19.8995L509.278 22.348C510.918 22.5877 511.571 24.6034 510.384 25.7597L498.266 37.5625C497.794 38.022 497.579 38.6843 497.69 39.3333L500.55 56.0053C500.83 57.6392 499.115 58.8851 497.648 58.1135L482.671 50.2372C482.088 49.9307 481.392 49.9307 480.809 50.2372L465.832 58.1135C464.365 58.8851 462.649 57.6392 462.93 56.0053L465.789 39.3333C465.9 38.6843 465.685 38.022 465.213 37.5625L453.095 25.7597C451.908 24.6034 452.562 22.5877 454.202 22.348L470.953 19.8995C471.604 19.8044 472.166 19.3955 472.457 18.8058L479.946 3.63326Z" fill="#F1A246"/>
<path d="M164.01 90.3193H167.774C169.972 90.3193 171.349 91.6377 171.349 93.6885C171.349 95.7832 170.045 97.0576 167.818 97.0576H164.01V90.3193ZM164.01 100.266H167.555L171.495 108H176.505L172.052 99.6064C174.483 98.6543 175.89 96.3105 175.89 93.6006C175.89 89.4258 173.106 86.8623 168.243 86.8623H159.586V108H164.01V100.266ZM184.415 105.158C182.965 105.158 181.998 104.426 181.998 103.254C181.998 102.141 182.906 101.423 184.503 101.306L187.813 101.101V102.243C187.813 103.942 186.275 105.158 184.415 105.158ZM183.009 108.249C184.972 108.249 186.92 107.268 187.799 105.598H187.887V108H192.018V97.2041C192.018 94.04 189.396 91.96 185.367 91.96C181.207 91.96 178.614 94.0547 178.453 97.1016H182.364C182.569 95.9443 183.58 95.1533 185.177 95.1533C186.788 95.1533 187.813 96.0029 187.813 97.4678V98.5078L183.858 98.7422C179.947 98.9766 177.75 100.632 177.75 103.488C177.75 106.315 180.021 108.249 183.009 108.249ZM195.929 88.6787V92.2969H193.717V95.5195H195.929V103.767C195.929 106.828 197.364 108.059 201.056 108.059C201.92 108.059 202.652 107.985 203.092 107.883V104.733C202.828 104.777 202.433 104.807 202.052 104.807C200.792 104.807 200.206 104.235 200.206 103.034V95.5195H203.106V92.2969H200.206V88.6787H195.929ZM212.262 95.124C214.166 95.124 215.47 96.501 215.558 98.5078H208.893C209.039 96.5449 210.387 95.124 212.262 95.124ZM215.616 103.195C215.221 104.396 214.02 105.173 212.452 105.173C210.27 105.173 208.849 103.635 208.849 101.394V101.13H219.674V99.8262C219.674 95.0508 216.788 91.96 212.218 91.96C207.574 91.96 204.645 95.2119 204.645 100.222C204.645 105.246 207.545 108.337 212.379 108.337C216.261 108.337 219.073 106.271 219.542 103.195H215.616ZM227.716 108.249C230.03 108.249 231.847 107.033 232.608 105.305H232.682V108H236.9V86.8623H232.623V94.9922H232.535C231.773 93.249 230.016 92.0479 227.745 92.0479C223.805 92.0479 221.314 95.1387 221.314 100.119C221.314 105.144 223.79 108.249 227.716 108.249ZM229.166 95.4756C231.29 95.4756 232.652 97.292 232.652 100.148C232.652 103.02 231.29 104.807 229.166 104.807C227.013 104.807 225.694 103.034 225.694 100.148C225.694 97.2773 227.013 95.4756 229.166 95.4756ZM255.885 108H260.089V104.118H262.872V100.588H260.089V86.8623H253.849C249.513 93.2344 247.213 96.9258 245.367 100.427V104.118H255.885V108ZM249.22 100.588C250.904 97.4385 252.823 94.4355 255.885 90.0264H255.973V100.705H249.22V100.588ZM267.911 108.176C269.215 108.176 270.27 107.121 270.27 105.817C270.27 104.499 269.215 103.459 267.911 103.459C266.593 103.459 265.553 104.499 265.553 105.817C265.553 107.121 266.593 108.176 267.911 108.176ZM281.871 108.469C286.91 108.469 290.44 105.949 290.44 102.287C290.44 99.5039 288.404 97.4531 285.519 96.8818V96.7939C287.994 96.1787 289.664 94.3623 289.664 92.0918C289.664 88.7812 286.456 86.3936 281.871 86.3936C277.286 86.3936 274.063 88.7959 274.063 92.0771C274.063 94.377 275.748 96.1934 278.238 96.7939V96.8818C275.353 97.4385 273.302 99.4893 273.302 102.272C273.302 105.935 276.817 108.469 281.871 108.469ZM281.871 105.246C279.542 105.246 277.916 103.869 277.916 101.95C277.916 100.061 279.542 98.6836 281.871 98.6836C284.2 98.6836 285.812 100.046 285.812 101.95C285.812 103.869 284.2 105.246 281.871 105.246ZM281.871 95.4609C279.864 95.4609 278.443 94.2598 278.443 92.5312C278.443 90.7881 279.864 89.5869 281.871 89.5869C283.863 89.5869 285.299 90.7881 285.299 92.5312C285.299 94.2598 283.863 95.4609 281.871 95.4609ZM304.342 104.426C307.198 104.426 309.571 102.067 309.571 99.2109C309.571 96.3545 307.198 93.9814 304.342 93.9814C301.485 93.9814 299.127 96.3545 299.127 99.2109C299.127 102.067 301.485 104.426 304.342 104.426ZM326.637 108.469C331.485 108.469 334.811 105.437 334.811 100.969C334.811 96.9404 331.925 94.04 327.896 94.04C325.758 94.04 324.015 94.9043 323.136 96.3252H323.048L323.561 90.3779H333.536V86.8623H320.045L319.078 99.2695H322.931C323.648 97.9951 324.967 97.2041 326.666 97.2041C328.98 97.2041 330.592 98.8008 330.592 101.071C330.592 103.371 328.98 104.968 326.651 104.968C324.615 104.968 323.048 103.767 322.799 101.936H318.712C318.829 105.773 322.11 108.469 326.637 108.469ZM345.621 108.469C350.982 108.469 354.234 104.206 354.234 97.3799C354.234 90.5537 350.953 86.3789 345.621 86.3789C340.289 86.3789 336.993 90.5684 336.993 97.3945C336.993 104.235 340.26 108.469 345.621 108.469ZM345.621 104.924C343.014 104.924 341.49 102.243 341.49 97.3945C341.49 92.5898 343.043 89.9238 345.621 89.9238C348.214 89.9238 349.737 92.5752 349.737 97.3945C349.737 102.243 348.229 104.924 345.621 104.924ZM365.309 108.469C370.67 108.469 373.922 104.206 373.922 97.3799C373.922 90.5537 370.641 86.3789 365.309 86.3789C359.977 86.3789 356.681 90.5684 356.681 97.3945C356.681 104.235 359.947 108.469 365.309 108.469ZM365.309 104.924C362.701 104.924 361.178 102.243 361.178 97.3945C361.178 92.5898 362.73 89.9238 365.309 89.9238C367.901 89.9238 369.425 92.5752 369.425 97.3945C369.425 102.243 367.916 104.924 365.309 104.924ZM386.769 101.394H392.467V97.6582H386.769V91.667H382.945V97.6582H377.262V101.394H382.945V107.37H386.769V101.394ZM406.705 90.3193H410.47C412.667 90.3193 414.044 91.6377 414.044 93.6885C414.044 95.7832 412.74 97.0576 410.514 97.0576H406.705V90.3193ZM406.705 100.266H410.25L414.19 108H419.2L414.747 99.6064C417.179 98.6543 418.585 96.3105 418.585 93.6006C418.585 89.4258 415.802 86.8623 410.938 86.8623H402.281V108H406.705V100.266ZM428.033 95.124C429.938 95.124 431.241 96.501 431.329 98.5078H424.664C424.811 96.5449 426.158 95.124 428.033 95.124ZM431.388 103.195C430.992 104.396 429.791 105.173 428.224 105.173C426.041 105.173 424.62 103.635 424.62 101.394V101.13H435.445V99.8262C435.445 95.0508 432.56 91.96 427.989 91.96C423.346 91.96 420.416 95.2119 420.416 100.222C420.416 105.246 423.316 108.337 428.15 108.337C432.032 108.337 434.845 106.271 435.313 103.195H431.388ZM451.778 92.2969H447.311L444.059 104.221H443.971L440.704 92.2969H436.119L441.554 108H446.388L451.778 92.2969ZM453.346 108H457.623V92.2969H453.346V108ZM455.47 90.1729C456.715 90.1729 457.696 89.1768 457.696 87.9756C457.696 86.7598 456.715 85.7783 455.47 85.7783C454.225 85.7783 453.243 86.7598 453.243 87.9756C453.243 89.1768 454.225 90.1729 455.47 90.1729ZM467.525 95.124C469.43 95.124 470.733 96.501 470.821 98.5078H464.156C464.303 96.5449 465.65 95.124 467.525 95.124ZM470.88 103.195C470.484 104.396 469.283 105.173 467.716 105.173C465.533 105.173 464.112 103.635 464.112 101.394V101.13H474.938V99.8262C474.938 95.0508 472.052 91.96 467.481 91.96C462.838 91.96 459.908 95.2119 459.908 100.222C459.908 105.246 462.809 108.337 467.643 108.337C471.524 108.337 474.337 106.271 474.806 103.195H470.88ZM499.093 92.2969H494.874L492.486 103.942H492.398L489.601 92.2969H485.499L482.716 103.942H482.628L480.255 92.2969H475.948L480.123 108H484.62L487.447 96.8965H487.535L490.377 108H494.933L499.093 92.2969ZM500.411 96.9111C500.411 99.2695 501.949 100.793 504.981 101.438L507.662 101.994C509.2 102.346 509.742 102.814 509.742 103.649C509.742 104.675 508.746 105.334 507.135 105.334C505.436 105.334 504.454 104.602 504.19 103.225H500.016C500.294 106.315 502.799 108.337 507.135 108.337C511.178 108.337 514.005 106.301 514.005 103.21C514.005 100.91 512.657 99.6211 509.376 98.9326L506.695 98.3613C505.113 98.0244 504.527 97.4824 504.527 96.6768C504.527 95.6367 505.509 94.9629 506.988 94.9629C508.57 94.9629 509.522 95.8271 509.654 97.1016H513.595C513.507 94.0254 511.017 91.96 506.988 91.96C502.989 91.96 500.411 93.9229 500.411 96.9111Z" fill="#EDF0F5"/>
</svg>
